<svg xmlns="http://www.w3.org/2000/svg" viewBox="0 0 242 241.52"><defs><style>.cls-1,.cls-11,.cls-12,.cls-3,.cls-4{fill:none;}.cls-1{stroke:#fff;stroke-width:15px;}.cls-1,.cls-12,.cls-3,.cls-4,.cls-7{stroke-linejoin:round;}.cls-2{fill:#fff;}.cls-3{stroke:#000;}.cls-3,.cls-4,.cls-7{stroke-width:5px;}.cls-4,.cls-7{stroke:#6b2121;}.cls-5{fill:#b7393a;}.cls-6{fill:#faba00;}.cls-10,.cls-7{fill:#6b2121;}.cls-8{fill:#e2e2e2;}.cls-9{fill:#2d0e0e;}.cls-11,.cls-12{stroke:#faba00;stroke-width:2.5px;}.cls-11{stroke-miterlimit:10;}</style></defs><title>kk-penaltyshot-logo</title><g id="Layer_2" data-name="Layer 2"><g id="Layer_1-2" data-name="Layer 1"><path class="cls-1" d="M122,7.5c-52.47,0-97.62,14.65-97.62,14.65v93C24.38,172,81.42,217.68,122,234c40.58-16.34,97.63-62,97.63-118.89v-93S166.55,7.5,122,7.5Z"/><path class="cls-1" d="M122,7.5c-52.47,0-97.62,14.65-97.62,14.65v93C24.38,172,81.42,217.68,122,234c40.58-16.34,97.63-62,97.63-118.89v-93S166.55,7.5,122,7.5Z"/><path class="cls-1" d="M122,7.5c-52.47,0-97.62,14.65-97.62,14.65v93C24.38,172,81.42,217.68,122,234c40.58-16.34,97.63-62,97.63-118.89v-93S166.55,7.5,122,7.5Z"/><path class="cls-1" d="M122,7.5c-52.47,0-97.62,14.65-97.62,14.65v93C24.38,172,81.42,217.68,122,234c40.58-16.34,97.63-62,97.63-118.89v-93S166.55,7.5,122,7.5Z"/><path class="cls-1" d="M122,7.5c-52.47,0-97.62,14.65-97.62,14.65v93C24.38,172,81.42,217.68,122,234c40.58-16.34,97.63-62,97.63-118.89v-93S166.55,7.5,122,7.5Z"/><path class="cls-1" d="M122,7.5c-52.47,0-97.62,14.65-97.62,14.65v93C24.38,172,81.42,217.68,122,234c40.58-16.34,97.63-62,97.63-118.89v-93S166.55,7.5,122,7.5Z"/><path class="cls-1" d="M122,223.18a181.42,181.42,0,0,1-56.74-40.24C51.17,168,34.38,144,34.38,115.13V29.66C48.71,25.75,83.53,17.5,122,17.5c33.17,0,71.79,8.53,87.63,12.41v85.22c0,28.89-16.79,52.82-30.88,67.81A181.35,181.35,0,0,1,122,223.18Z"/><path class="cls-1" d="M50.2,36.79c0-.81.95-1.15,1.91-1.15S54,36,54,36.79v5.88l4.58-6.49a1.16,1.16,0,0,1,1-.54,2.43,2.43,0,0,1,2.25,2,1.28,1.28,0,0,1-.24.74l-4,5,5.07,7.77a1.27,1.27,0,0,1,.2.64,2.34,2.34,0,0,1-2.31,1.91A1.49,1.49,0,0,1,59.24,53l-4.19-6.37-1,1.32v4.44c0,.78-1,1.17-1.91,1.17s-1.91-.39-1.91-1.17Z"/><path class="cls-1" d="M73.6,46.54v5.84c0,.66-.79,1.17-1.87,1.17S70,53,70,52.38v-.54a4.77,4.77,0,0,1-3.72,2,3,3,0,0,1-3.14-3.26c0-2.89,2.35-3.7,5.74-3.7h.88v-.25A1.69,1.69,0,0,0,68,44.78c-2,0-2.2.81-2.87.81-.83,0-1.27-1-1.27-1.89,0-1.15,2.38-2,4.19-2C72,41.74,73.6,44.07,73.6,46.54Zm-3.8,2.14h-.1c-1.4,0-2.7.14-2.7,1.32a.9.9,0,0,0,1,1,2.29,2.29,0,0,0,1.84-2.26Z"/><path class="cls-1" d="M82.17,45.05c-1.35,0-2.67,1.42-2.67,3.65v3.68c0,.59-.86,1.17-1.94,1.17S75.7,53,75.7,52.38V43c0-.69.79-1.15,1.86-1.15s1.69.46,1.69,1.15V44a3.63,3.63,0,0,1,2.92-2.21h.71a1.69,1.69,0,0,1,0,3.31Z"/><path class="cls-1" d="M89.15,43v11.2c0,2.72-1.39,4.63-3.89,4.63-1.62,0-2-.78-2-1.54a1.49,1.49,0,0,1,1.42-1.65c.59,0,.66-.61.66-1.44V43c0-.69.79-1.15,1.87-1.15S89.15,42.35,89.15,43Zm.08-5.17a2,2,0,1,1-2-1.74A1.91,1.91,0,0,1,89.23,37.87Z"/><path class="cls-1" d="M101.11,46.54v5.84c0,.66-.78,1.17-1.86,1.17s-1.69-.51-1.69-1.17v-.54a4.79,4.79,0,0,1-3.73,2,3,3,0,0,1-3.13-3.26c0-2.89,2.35-3.7,5.73-3.7h.88v-.25a1.69,1.69,0,0,0-1.84-1.81c-2,0-2.2.81-2.86.81-.84,0-1.28-1-1.28-1.89,0-1.15,2.38-2,4.19-2C99.54,41.74,101.11,44.07,101.11,46.54Zm-3.8,2.14h-.1c-1.39,0-2.69.14-2.69,1.32a.9.9,0,0,0,1,1,2.29,2.29,0,0,0,1.84-2.26Z"/><path class="cls-1" d="M107.23,36.37v16c0,.59-.85,1.17-1.91,1.17s-1.88-.58-1.88-1.17v-16c0-.68.78-1.15,1.88-1.15S107.23,35.69,107.23,36.37Z"/><path class="cls-1" d="M119.41,46.54v5.84c0,.66-.78,1.17-1.86,1.17s-1.69-.51-1.69-1.17v-.54a4.78,4.78,0,0,1-3.73,2A3,3,0,0,1,109,50.54c0-2.89,2.35-3.7,5.73-3.7h.88v-.25a1.69,1.69,0,0,0-1.84-1.81c-2,0-2.2.81-2.86.81-.84,0-1.28-1-1.28-1.89,0-1.15,2.38-2,4.19-2C117.84,41.74,119.41,44.07,119.41,46.54Zm-3.8,2.14h-.1c-1.39,0-2.69.14-2.69,1.32a.9.9,0,0,0,1,1,2.29,2.29,0,0,0,1.84-2.26Z"/><path class="cls-1" d="M126.64,36.79c0-.81,1-1.15,1.91-1.15s1.91.34,1.91,1.15v5.88L135,36.18a1.15,1.15,0,0,1,1-.54,2.43,2.43,0,0,1,2.25,2,1.28,1.28,0,0,1-.24.74l-4,5,5.07,7.77a1.27,1.27,0,0,1,.2.64A2.35,2.35,0,0,1,137,53.7a1.49,1.49,0,0,1-1.32-.71l-4.19-6.37-1,1.32v4.44c0,.78-1,1.17-1.91,1.17s-1.91-.39-1.91-1.17Z"/><path class="cls-1" d="M150,46.54v5.84c0,.66-.79,1.17-1.87,1.17s-1.69-.51-1.69-1.17v-.54a4.77,4.77,0,0,1-3.72,2,3,3,0,0,1-3.14-3.26c0-2.89,2.35-3.7,5.74-3.7h.88v-.25a1.69,1.69,0,0,0-1.84-1.81c-2,0-2.21.81-2.87.81-.83,0-1.27-1-1.27-1.89,0-1.15,2.37-2,4.19-2C148.47,41.74,150,44.07,150,46.54Zm-3.8,2.14h-.1c-1.4,0-2.7.14-2.7,1.32a.9.9,0,0,0,1,1,2.29,2.29,0,0,0,1.84-2.26Z"/><path class="cls-1" d="M157.63,50.17c0-1.69-5.74-.54-5.74-4.66,0-1.81,1.13-3.77,4.61-3.77,2.13,0,4.17.74,4.17,1.77,0,.49-.49,1.78-1.37,1.78-.67,0-1.43-.73-2.75-.73-1,0-1.4.42-1.4.78,0,1.38,5.79.37,5.79,4.68,0,2.31-1.67,3.78-4.73,3.78-2.58,0-4.66-1.06-4.66-2.26,0-.58.49-1.66,1.25-1.66s1.35,1.1,3.31,1.1C157.41,51,157.63,50.51,157.63,50.17Z"/><path class="cls-1" d="M166.52,37.87a2,2,0,1,1-2-1.74A1.9,1.9,0,0,1,166.52,37.87ZM166.45,43v9.34c0,.59-.86,1.17-1.91,1.17s-1.89-.58-1.89-1.17V43c0-.69.78-1.15,1.89-1.15S166.45,42.35,166.45,43Z"/><path class="cls-1" d="M172.43,52.38c0,.59-.89,1.17-1.92,1.17s-1.88-.58-1.88-1.17V43c0-.69.78-1.15,1.88-1.15.91,0,1.67.46,1.67,1.15v.56a3.61,3.61,0,0,1,3.28-1.86c2.24,0,4.17,2.33,4.17,5.15v5.49c0,.78-.95,1.17-1.91,1.17s-1.89-.39-1.89-1.17V46.89a1.85,1.85,0,0,0-1.76-1.84,1.73,1.73,0,0,0-1.64,1.84Z"/><path class="cls-1" d="M192.42,46.89V48.6a5.59,5.59,0,0,1-11.15,0V46.89a5.59,5.59,0,0,1,11.15,0Zm-3.8,0a1.88,1.88,0,0,0-1.79-1.84,1.85,1.85,0,0,0-1.76,1.84V48.6a1.86,1.86,0,0,0,1.76,1.89,1.89,1.89,0,0,0,1.79-1.89Z"/><polygon class="cls-1" points="17.59 123.67 51.22 139.06 190.74 139.06 224.13 123.67 17.59 123.67"/><polygon class="cls-1" points="57.2 172.42 90.83 187.41 151.42 187.72 184.83 172.38 57.2 172.42"/><polygon class="cls-1" points="234.5 66.17 7.5 66.17 17.5 123.17 48.56 123.17 57.2 172.42 184.8 172.42 193.44 123.17 224.5 123.17 234.5 66.17"/><polygon class="cls-1" points="234.5 66.17 7.5 66.17 17.5 123.17 48.56 123.17 57.2 172.42 184.8 172.42 193.44 123.17 224.5 123.17 234.5 66.17"/><polygon class="cls-1" points="234.5 66.17 7.5 66.17 17.5 123.17 48.56 123.17 57.2 172.42 184.8 172.42 193.44 123.17 224.5 123.17 234.5 66.17"/><path class="cls-1" d="M58.82,96.63v.14a8.53,8.53,0,0,1-8.5,8.37H41.53l1.89-6.29h6.76a2.34,2.34,0,0,0,2.36-2.36v-5a2.34,2.34,0,0,0-2.36-2.36H39.07v25.61H32.83V82.83H50.32a8.52,8.52,0,0,1,8.5,8.37v5.43Zm0-5.29v0Zm0,5.43v0Z"/><path class="cls-1" d="M85.29,95.64v6.28h-16v4.21a2.4,2.4,0,0,0,2.36,2.36H85.29v6.24H71.58a8.53,8.53,0,0,1-8.5-8.51V91.34a8.53,8.53,0,0,1,8.5-8.51H85.29L83.4,89.12H71.68a2.36,2.36,0,0,0-2.36,2.36V98.8l3.16-3.16Z"/><path class="cls-1" d="M114.35,114.73h-6.28L96,94.88v19.85H89.78V82.83H96l12,19.85V82.83h6.28v31.9Z"/><path class="cls-1" d="M144.83,114.73h-6.28v-9.59H127.44l1.89-6.29h9.22V91.48a2.34,2.34,0,0,0-2.36-2.36h-8.75a2.37,2.37,0,0,0-2.36,2.36v23.25h-6.24V91.34a8.54,8.54,0,0,1,8.51-8.51h9a8.53,8.53,0,0,1,8.5,8.51Z"/><path class="cls-1" d="M157.83,114.73a8.54,8.54,0,0,1-8.51-8.51V82.83h6.24v23.3a2.41,2.41,0,0,0,2.37,2.36h9.64l1.89,6.24Z"/><path class="cls-1" d="M189.3,89.12h-9.16v25.61H173.9V92.23L177,89.12H164.73V82.83H189.3Z"/><path class="cls-1" d="M207.83,99.75v15h-6.29V97.81L203,95.64H198.8l-8.55-12.81h7.51l6.9,10.3,7-10.3h7.51Z"/><path class="cls-1" d="M96.44,152.22a8.53,8.53,0,0,1-8.5,8.51H70.45l1.89-6.24H87.79a2.37,2.37,0,0,0,2.37-2.36v-1.85a2.34,2.34,0,0,0-2.37-2.36H79a8.53,8.53,0,0,1-8.51-8.5v-2.08A8.54,8.54,0,0,1,79,128.83H94.08l-1.89,6.29H79.05a2.37,2.37,0,0,0-2.36,2.36v1.79a2.37,2.37,0,0,0,2.36,2.37h8.89a8.53,8.53,0,0,1,8.5,8.5Z"/><path class="cls-1" d="M123.38,160.73h-6.29V147.92H106v12.81H99.75v-31.9H106v16l3.16-3.16h7.94V128.83h6.29Z"/><path class="cls-1" d="M152.91,137.34v14.88a8.53,8.53,0,0,1-8.5,8.51h-8a8.53,8.53,0,0,1-8.5-8.51V137.34a8.53,8.53,0,0,1,8.5-8.51h8A8.53,8.53,0,0,1,152.91,137.34Zm-6.28.14a2.34,2.34,0,0,0-2.36-2.36h-7.8a2.36,2.36,0,0,0-2.36,2.36v14.65a2.4,2.4,0,0,0,2.36,2.36h7.8a2.37,2.37,0,0,0,2.36-2.36Z"/><path class="cls-1" d="M180.56,135.12h-9.17v25.61h-6.23v-22.5l3.12-3.11H156v-6.29h24.57Z"/><path class="cls-1" d="M58.82,96.63v.14a8.53,8.53,0,0,1-8.5,8.37H41.53l1.89-6.29h6.76a2.34,2.34,0,0,0,2.36-2.36v-5a2.34,2.34,0,0,0-2.36-2.36H39.07v25.61H32.83V82.83H50.32a8.52,8.52,0,0,1,8.5,8.37v5.43Zm0-5.29v0Zm0,5.43v0Z"/><path class="cls-1" d="M85.29,95.64v6.28h-16v4.21a2.4,2.4,0,0,0,2.36,2.36H85.29v6.24H71.58a8.53,8.53,0,0,1-8.5-8.51V91.34a8.53,8.53,0,0,1,8.5-8.51H85.29L83.4,89.12H71.68a2.36,2.36,0,0,0-2.36,2.36V98.8l3.16-3.16Z"/><path class="cls-1" d="M114.35,114.73h-6.28L96,94.88v19.85H89.78V82.83H96l12,19.85V82.83h6.28v31.9Z"/><path class="cls-1" d="M144.83,114.73h-6.28v-9.59H127.44l1.89-6.29h9.22V91.48a2.34,2.34,0,0,0-2.36-2.36h-8.75a2.37,2.37,0,0,0-2.36,2.36v23.25h-6.24V91.34a8.54,8.54,0,0,1,8.51-8.51h9a8.53,8.53,0,0,1,8.5,8.51Z"/><path class="cls-1" d="M157.83,114.73a8.54,8.54,0,0,1-8.51-8.51V82.83h6.24v23.3a2.41,2.41,0,0,0,2.37,2.36h9.64l1.89,6.24Z"/><path class="cls-1" d="M189.3,89.12h-9.16v25.61H173.9V92.23L177,89.12H164.73V82.83H189.3Z"/><path class="cls-1" d="M207.83,99.75v15h-6.29V97.81L203,95.64H198.8l-8.55-12.81h7.51l6.9,10.3,7-10.3h7.51Z"/><path class="cls-1" d="M96.44,152.22a8.53,8.53,0,0,1-8.5,8.51H70.45l1.89-6.24H87.79a2.37,2.37,0,0,0,2.37-2.36v-1.85a2.34,2.34,0,0,0-2.37-2.36H79a8.53,8.53,0,0,1-8.51-8.5v-2.08A8.54,8.54,0,0,1,79,128.83H94.08l-1.89,6.29H79.05a2.37,2.37,0,0,0-2.36,2.36v1.79a2.37,2.37,0,0,0,2.36,2.37h8.89a8.53,8.53,0,0,1,8.5,8.5Z"/><path class="cls-1" d="M123.38,160.73h-6.29V147.92H106v12.81H99.75v-31.9H106v16l3.16-3.16h7.94V128.83h6.29Z"/><path class="cls-1" d="M152.91,137.34v14.88a8.53,8.53,0,0,1-8.5,8.51h-8a8.53,8.53,0,0,1-8.5-8.51V137.34a8.53,8.53,0,0,1,8.5-8.51h8A8.53,8.53,0,0,1,152.91,137.34Zm-6.28.14a2.34,2.34,0,0,0-2.36-2.36h-7.8a2.36,2.36,0,0,0-2.36,2.36v14.65a2.4,2.4,0,0,0,2.36,2.36h7.8a2.37,2.37,0,0,0,2.36-2.36Z"/><path class="cls-1" d="M180.56,135.12h-9.17v25.61h-6.23v-22.5l3.12-3.11H156v-6.29h24.57Z"/><path class="cls-1" d="M58.82,96.63v.14a8.53,8.53,0,0,1-8.5,8.37H41.53l1.89-6.29h6.76a2.34,2.34,0,0,0,2.36-2.36v-5a2.34,2.34,0,0,0-2.36-2.36H39.07v25.61H32.83V82.83H50.32a8.52,8.52,0,0,1,8.5,8.37v5.43Zm0-5.29v0Zm0,5.43v0Z"/><path class="cls-1" d="M85.29,95.64v6.28h-16v4.21a2.4,2.4,0,0,0,2.36,2.36H85.29v6.24H71.58a8.53,8.53,0,0,1-8.5-8.51V91.34a8.53,8.53,0,0,1,8.5-8.51H85.29L83.4,89.12H71.68a2.36,2.36,0,0,0-2.36,2.36V98.8l3.16-3.16Z"/><path class="cls-1" d="M114.35,114.73h-6.28L96,94.88v19.85H89.78V82.83H96l12,19.85V82.83h6.28v31.9Z"/><path class="cls-1" d="M144.83,114.73h-6.28v-9.59H127.44l1.89-6.29h9.22V91.48a2.34,2.34,0,0,0-2.36-2.36h-8.75a2.37,2.37,0,0,0-2.36,2.36v23.25h-6.24V91.34a8.54,8.54,0,0,1,8.51-8.51h9a8.53,8.53,0,0,1,8.5,8.51Z"/><path class="cls-1" d="M157.83,114.73a8.54,8.54,0,0,1-8.51-8.51V82.83h6.24v23.3a2.41,2.41,0,0,0,2.37,2.36h9.64l1.89,6.24Z"/><path class="cls-1" d="M189.3,89.12h-9.16v25.61H173.9V92.23L177,89.12H164.73V82.83H189.3Z"/><path class="cls-1" d="M207.83,99.75v15h-6.29V97.81L203,95.64H198.8l-8.55-12.81h7.51l6.9,10.3,7-10.3h7.51Z"/><path class="cls-1" d="M96.44,152.22a8.53,8.53,0,0,1-8.5,8.51H70.45l1.89-6.24H87.79a2.37,2.37,0,0,0,2.37-2.36v-1.85a2.34,2.34,0,0,0-2.37-2.36H79a8.53,8.53,0,0,1-8.51-8.5v-2.08A8.54,8.54,0,0,1,79,128.83H94.08l-1.89,6.29H79.05a2.37,2.37,0,0,0-2.36,2.36v1.79a2.37,2.37,0,0,0,2.36,2.37h8.89a8.53,8.53,0,0,1,8.5,8.5Z"/><path class="cls-1" d="M123.38,160.73h-6.29V147.92H106v12.81H99.75v-31.9H106v16l3.16-3.16h7.94V128.83h6.29Z"/><path class="cls-1" d="M152.91,137.34v14.88a8.53,8.53,0,0,1-8.5,8.51h-8a8.53,8.53,0,0,1-8.5-8.51V137.34a8.53,8.53,0,0,1,8.5-8.51h8A8.53,8.53,0,0,1,152.91,137.34Zm-6.28.14a2.34,2.34,0,0,0-2.36-2.36h-7.8a2.36,2.36,0,0,0-2.36,2.36v14.65a2.4,2.4,0,0,0,2.36,2.36h7.8a2.37,2.37,0,0,0,2.36-2.36Z"/><path class="cls-1" d="M180.56,135.12h-9.17v25.61h-6.23v-22.5l3.12-3.11H156v-6.29h24.57Z"/><path class="cls-1" d="M55.32,93.13v.14a8.53,8.53,0,0,1-8.5,8.37H38l1.89-6.29h6.76A2.34,2.34,0,0,0,49,93V88a2.34,2.34,0,0,0-2.36-2.36H35.57v25.61H29.33V79.33H46.82a8.52,8.52,0,0,1,8.5,8.37v5.43Zm0-5.29v0Zm0,5.43v0Z"/><path class="cls-1" d="M81.79,92.14v6.28h-16v4.21A2.4,2.4,0,0,0,68.18,105H81.79v6.24H68.08a8.53,8.53,0,0,1-8.5-8.51V87.84a8.53,8.53,0,0,1,8.5-8.51H81.79L79.9,85.62H68.18A2.36,2.36,0,0,0,65.82,88V95.3L69,92.14Z"/><path class="cls-1" d="M110.85,111.23h-6.28l-12-19.85v19.85H86.28V79.33h6.24l12,19.85V79.33h6.28v31.9Z"/><path class="cls-1" d="M141.33,111.23h-6.28v-9.59H123.94l1.89-6.29h9.22V88a2.34,2.34,0,0,0-2.36-2.36h-8.75A2.37,2.37,0,0,0,121.58,88v23.25h-6.24V87.84a8.54,8.54,0,0,1,8.51-8.51h9a8.53,8.53,0,0,1,8.5,8.51Z"/><path class="cls-1" d="M154.33,111.23a8.54,8.54,0,0,1-8.51-8.51V79.33h6.24v23.3a2.41,2.41,0,0,0,2.37,2.36h9.64l1.89,6.24Z"/><path class="cls-1" d="M185.8,85.62h-9.16v25.61H170.4V88.73l3.12-3.11H161.23V79.33H185.8Z"/><path class="cls-1" d="M204.33,96.25v15H198V94.31l1.47-2.17H195.3l-8.55-12.81h7.51l6.9,10.3,7-10.3h7.51Z"/><path class="cls-1" d="M92.94,148.72a8.53,8.53,0,0,1-8.5,8.51H67L68.84,151H84.29a2.37,2.37,0,0,0,2.37-2.36v-1.85a2.34,2.34,0,0,0-2.37-2.36H75.46a8.53,8.53,0,0,1-8.51-8.5v-2.08a8.54,8.54,0,0,1,8.51-8.51H90.58l-1.89,6.29H75.55A2.37,2.37,0,0,0,73.19,134v1.79a2.37,2.37,0,0,0,2.36,2.37h8.89a8.53,8.53,0,0,1,8.5,8.5Z"/><path class="cls-1" d="M119.88,157.23h-6.29V144.42h-11.1v12.81H96.25v-31.9h6.24v16l3.16-3.16h7.94V125.33h6.29Z"/><path class="cls-1" d="M149.41,133.84v14.88a8.53,8.53,0,0,1-8.5,8.51h-8a8.53,8.53,0,0,1-8.5-8.51V133.84a8.53,8.53,0,0,1,8.5-8.51h8A8.53,8.53,0,0,1,149.41,133.84Zm-6.28.14a2.34,2.34,0,0,0-2.36-2.36H133a2.36,2.36,0,0,0-2.36,2.36v14.65A2.4,2.4,0,0,0,133,151h7.8a2.37,2.37,0,0,0,2.36-2.36Z"/><path class="cls-1" d="M177.06,131.62h-9.17v25.61h-6.23v-22.5l3.12-3.11H152.49v-6.29h24.57Z"/><path class="cls-1" d="M55.32,93.13v.14a8.53,8.53,0,0,1-8.5,8.37H38l1.89-6.29h6.76A2.34,2.34,0,0,0,49,93V88a2.34,2.34,0,0,0-2.36-2.36H35.57v25.61H29.33V79.33H46.82a8.52,8.52,0,0,1,8.5,8.37v5.43Zm0-5.29v0Zm0,5.43v0Z"/><path class="cls-1" d="M81.79,92.14v6.28h-16v4.21A2.4,2.4,0,0,0,68.18,105H81.79v6.24H68.08a8.53,8.53,0,0,1-8.5-8.51V87.84a8.53,8.53,0,0,1,8.5-8.51H81.79L79.9,85.62H68.18A2.36,2.36,0,0,0,65.82,88V95.3L69,92.14Z"/><path class="cls-1" d="M110.85,111.23h-6.28l-12-19.85v19.85H86.28V79.33h6.24l12,19.85V79.33h6.28v31.9Z"/><path class="cls-1" d="M141.33,111.23h-6.28v-9.59H123.94l1.89-6.29h9.22V88a2.34,2.34,0,0,0-2.36-2.36h-8.75A2.37,2.37,0,0,0,121.58,88v23.25h-6.24V87.84a8.54,8.54,0,0,1,8.51-8.51h9a8.53,8.53,0,0,1,8.5,8.51Z"/><path class="cls-1" d="M154.33,111.23a8.54,8.54,0,0,1-8.51-8.51V79.33h6.24v23.3a2.41,2.41,0,0,0,2.37,2.36h9.64l1.89,6.24Z"/><path class="cls-1" d="M185.8,85.62h-9.16v25.61H170.4V88.73l3.12-3.11H161.23V79.33H185.8Z"/><path class="cls-1" d="M204.33,96.25v15H198V94.31l1.47-2.17H195.3l-8.55-12.81h7.51l6.9,10.3,7-10.3h7.51Z"/><path class="cls-1" d="M92.94,148.72a8.53,8.53,0,0,1-8.5,8.51H67L68.84,151H84.29a2.37,2.37,0,0,0,2.37-2.36v-1.85a2.34,2.34,0,0,0-2.37-2.36H75.46a8.53,8.53,0,0,1-8.51-8.5v-2.08a8.54,8.54,0,0,1,8.51-8.51H90.58l-1.89,6.29H75.55A2.37,2.37,0,0,0,73.19,134v1.79a2.37,2.37,0,0,0,2.36,2.37h8.89a8.53,8.53,0,0,1,8.5,8.5Z"/><path class="cls-1" d="M119.88,157.23h-6.29V144.42h-11.1v12.81H96.25v-31.9h6.24v16l3.16-3.16h7.94V125.33h6.29Z"/><path class="cls-1" d="M149.41,133.84v14.88a8.53,8.53,0,0,1-8.5,8.51h-8a8.53,8.53,0,0,1-8.5-8.51V133.84a8.53,8.53,0,0,1,8.5-8.51h8A8.53,8.53,0,0,1,149.41,133.84Zm-6.28.14a2.34,2.34,0,0,0-2.36-2.36H133a2.36,2.36,0,0,0-2.36,2.36v14.65A2.4,2.4,0,0,0,133,151h7.8a2.37,2.37,0,0,0,2.36-2.36Z"/><path class="cls-1" d="M177.06,131.62h-9.17v25.61h-6.23v-22.5l3.12-3.11H152.49v-6.29h24.57Z"/><path class="cls-1" d="M55.32,93.13v.14a8.53,8.53,0,0,1-8.5,8.37H38l1.89-6.29h6.76A2.34,2.34,0,0,0,49,93V88a2.34,2.34,0,0,0-2.36-2.36H35.57v25.61H29.33V79.33H46.82a8.52,8.52,0,0,1,8.5,8.37v5.43Zm0-5.29v0Zm0,5.43v0Z"/><path class="cls-1" d="M81.79,92.14v6.28h-16v4.21A2.4,2.4,0,0,0,68.18,105H81.79v6.24H68.08a8.53,8.53,0,0,1-8.5-8.51V87.84a8.53,8.53,0,0,1,8.5-8.51H81.79L79.9,85.62H68.18A2.36,2.36,0,0,0,65.82,88V95.3L69,92.14Z"/><path class="cls-1" d="M110.85,111.23h-6.28l-12-19.85v19.85H86.28V79.33h6.24l12,19.85V79.33h6.28v31.9Z"/><path class="cls-1" d="M141.33,111.23h-6.28v-9.59H123.94l1.89-6.29h9.22V88a2.34,2.34,0,0,0-2.36-2.36h-8.75A2.37,2.37,0,0,0,121.58,88v23.25h-6.24V87.84a8.54,8.54,0,0,1,8.51-8.51h9a8.53,8.53,0,0,1,8.5,8.51Z"/><path class="cls-1" d="M154.33,111.23a8.54,8.54,0,0,1-8.51-8.51V79.33h6.24v23.3a2.41,2.41,0,0,0,2.37,2.36h9.64l1.89,6.24Z"/><path class="cls-1" d="M185.8,85.62h-9.16v25.61H170.4V88.73l3.12-3.11H161.23V79.33H185.8Z"/><path class="cls-1" d="M204.33,96.25v15H198V94.31l1.47-2.17H195.3l-8.55-12.81h7.51l6.9,10.3,7-10.3h7.51Z"/><path class="cls-1" d="M92.94,148.72a8.53,8.53,0,0,1-8.5,8.51H67L68.84,151H84.29a2.37,2.37,0,0,0,2.37-2.36v-1.85a2.34,2.34,0,0,0-2.37-2.36H75.46a8.53,8.53,0,0,1-8.51-8.5v-2.08a8.54,8.54,0,0,1,8.51-8.51H90.58l-1.89,6.29H75.55A2.37,2.37,0,0,0,73.19,134v1.79a2.37,2.37,0,0,0,2.36,2.37h8.89a8.53,8.53,0,0,1,8.5,8.5Z"/><path class="cls-1" d="M119.88,157.23h-6.29V144.42h-11.1v12.81H96.25v-31.9h6.24v16l3.16-3.16h7.94V125.33h6.29Z"/><path class="cls-1" d="M149.41,133.84v14.88a8.53,8.53,0,0,1-8.5,8.51h-8a8.53,8.53,0,0,1-8.5-8.51V133.84a8.53,8.53,0,0,1,8.5-8.51h8A8.53,8.53,0,0,1,149.41,133.84Zm-6.28.14a2.34,2.34,0,0,0-2.36-2.36H133a2.36,2.36,0,0,0-2.36,2.36v14.65A2.4,2.4,0,0,0,133,151h7.8a2.37,2.37,0,0,0,2.36-2.36Z"/><path class="cls-1" d="M177.06,131.62h-9.17v25.61h-6.23v-22.5l3.12-3.11H152.49v-6.29h24.57Z"/><ellipse class="cls-1" cx="121.88" cy="195.92" rx="18" ry="5.5"/><ellipse class="cls-1" cx="121.88" cy="195.92" rx="18" ry="5.5"/><path class="cls-1" d="M139.88,195.92v8.5c0,3-8.06,5.5-18,5.5s-18-2.46-18-5.5v-8.5s0,5.5,18,5.5C133.88,201.42,139.88,199.92,139.88,195.92Z"/><path class="cls-1" d="M139.88,195.92v8.5c0,3-8.06,5.5-18,5.5s-18-2.46-18-5.5v-8.5s0,5.5,18,5.5C133.88,201.42,139.88,199.92,139.88,195.92Z"/><path class="cls-1" d="M93.63,200.67V185.29a5.62,5.62,0,0,1,5.62-5.62H144a5.62,5.62,0,0,1,5.62,5.62v15.38"/><path class="cls-1" d="M93.63,200.67V185.29a5.62,5.62,0,0,1,5.62-5.62H144a5.62,5.62,0,0,1,5.62,5.62v15.38"/><path class="cls-2" d="M122,7.5c-52.47,0-97.62,14.65-97.62,14.65v93C24.38,172,81.42,217.68,122,234c40.58-16.34,97.63-62,97.63-118.89v-93S166.55,7.5,122,7.5Z"/><path class="cls-3" d="M122,7.5c-52.47,0-97.62,14.65-97.62,14.65v93C24.38,172,81.42,217.68,122,234c40.58-16.34,97.63-62,97.63-118.89v-93S166.55,7.5,122,7.5Z"/><path class="cls-2" d="M122,7.5c-52.47,0-97.62,14.65-97.62,14.65v93C24.38,172,81.42,217.68,122,234c40.58-16.34,97.63-62,97.63-118.89v-93S166.55,7.5,122,7.5Z"/><path class="cls-4" d="M122,7.5c-52.47,0-97.62,14.65-97.62,14.65v93C24.38,172,81.42,217.68,122,234c40.58-16.34,97.63-62,97.63-118.89v-93S166.55,7.5,122,7.5Z"/><path class="cls-5" d="M122,223.18a181.42,181.42,0,0,1-56.74-40.24C51.17,168,34.38,144,34.38,115.13V29.66C48.71,25.75,83.53,17.5,122,17.5c33.17,0,71.79,8.53,87.63,12.41v85.22c0,28.89-16.79,52.82-30.88,67.81A181.35,181.35,0,0,1,122,223.18Z"/><path class="cls-6" d="M50.2,36.79c0-.81.95-1.15,1.91-1.15S54,36,54,36.79v5.88l4.58-6.49a1.16,1.16,0,0,1,1-.54,2.43,2.43,0,0,1,2.25,2,1.28,1.28,0,0,1-.24.74l-4,5,5.07,7.77a1.27,1.27,0,0,1,.2.64,2.34,2.34,0,0,1-2.31,1.91A1.49,1.49,0,0,1,59.24,53l-4.19-6.37-1,1.32v4.44c0,.78-1,1.17-1.91,1.17s-1.91-.39-1.91-1.17Z"/><path class="cls-6" d="M73.6,46.54v5.84c0,.66-.79,1.17-1.87,1.17S70,53,70,52.38v-.54a4.77,4.77,0,0,1-3.72,2,3,3,0,0,1-3.14-3.26c0-2.89,2.35-3.7,5.74-3.7h.88v-.25A1.69,1.69,0,0,0,68,44.78c-2,0-2.2.81-2.87.81-.83,0-1.27-1-1.27-1.89,0-1.15,2.38-2,4.19-2C72,41.74,73.6,44.07,73.6,46.54Zm-3.8,2.14h-.1c-1.4,0-2.7.14-2.7,1.32a.9.9,0,0,0,1,1,2.29,2.29,0,0,0,1.84-2.26Z"/><path class="cls-6" d="M82.17,45.05c-1.35,0-2.67,1.42-2.67,3.65v3.68c0,.59-.86,1.17-1.94,1.17S75.7,53,75.7,52.38V43c0-.69.79-1.15,1.86-1.15s1.69.46,1.69,1.15V44a3.63,3.63,0,0,1,2.92-2.21h.71a1.69,1.69,0,0,1,0,3.31Z"/><path class="cls-6" d="M89.15,43v11.2c0,2.72-1.39,4.63-3.89,4.63-1.62,0-2-.78-2-1.54a1.49,1.49,0,0,1,1.42-1.65c.59,0,.66-.61.66-1.44V43c0-.69.79-1.15,1.87-1.15S89.15,42.35,89.15,43Zm.08-5.17a2,2,0,1,1-2-1.74A1.91,1.91,0,0,1,89.23,37.87Z"/><path class="cls-6" d="M101.11,46.54v5.84c0,.66-.78,1.17-1.86,1.17s-1.69-.51-1.69-1.17v-.54a4.79,4.79,0,0,1-3.73,2,3,3,0,0,1-3.13-3.26c0-2.89,2.35-3.7,5.73-3.7h.88v-.25a1.69,1.69,0,0,0-1.84-1.81c-2,0-2.2.81-2.86.81-.84,0-1.28-1-1.28-1.89,0-1.15,2.38-2,4.19-2C99.54,41.74,101.11,44.07,101.11,46.54Zm-3.8,2.14h-.1c-1.39,0-2.69.14-2.69,1.32a.9.9,0,0,0,1,1,2.29,2.29,0,0,0,1.84-2.26Z"/><path class="cls-6" d="M107.23,36.37v16c0,.59-.85,1.17-1.91,1.17s-1.88-.58-1.88-1.17v-16c0-.68.78-1.15,1.88-1.15S107.23,35.69,107.23,36.37Z"/><path class="cls-6" d="M119.41,46.54v5.84c0,.66-.78,1.17-1.86,1.17s-1.69-.51-1.69-1.17v-.54a4.78,4.78,0,0,1-3.73,2A3,3,0,0,1,109,50.54c0-2.89,2.35-3.7,5.73-3.7h.88v-.25a1.69,1.69,0,0,0-1.84-1.81c-2,0-2.2.81-2.86.81-.84,0-1.28-1-1.28-1.89,0-1.15,2.38-2,4.19-2C117.84,41.74,119.41,44.07,119.41,46.54Zm-3.8,2.14h-.1c-1.39,0-2.69.14-2.69,1.32a.9.9,0,0,0,1,1,2.29,2.29,0,0,0,1.84-2.26Z"/><path class="cls-6" d="M126.64,36.79c0-.81,1-1.15,1.91-1.15s1.91.34,1.91,1.15v5.88L135,36.18a1.15,1.15,0,0,1,1-.54,2.43,2.43,0,0,1,2.25,2,1.28,1.28,0,0,1-.24.74l-4,5,5.07,7.77a1.27,1.27,0,0,1,.2.64A2.35,2.35,0,0,1,137,53.7a1.49,1.49,0,0,1-1.32-.71l-4.19-6.37-1,1.32v4.44c0,.78-1,1.17-1.91,1.17s-1.91-.39-1.91-1.17Z"/><path class="cls-6" d="M150,46.54v5.84c0,.66-.79,1.17-1.87,1.17s-1.69-.51-1.69-1.17v-.54a4.77,4.77,0,0,1-3.72,2,3,3,0,0,1-3.14-3.26c0-2.89,2.35-3.7,5.74-3.7h.88v-.25a1.69,1.69,0,0,0-1.84-1.81c-2,0-2.21.81-2.87.81-.83,0-1.27-1-1.27-1.89,0-1.15,2.37-2,4.19-2C148.47,41.74,150,44.07,150,46.54Zm-3.8,2.14h-.1c-1.4,0-2.7.14-2.7,1.32a.9.9,0,0,0,1,1,2.29,2.29,0,0,0,1.84-2.26Z"/><path class="cls-6" d="M157.63,50.17c0-1.69-5.74-.54-5.74-4.66,0-1.81,1.13-3.77,4.61-3.77,2.13,0,4.17.74,4.17,1.77,0,.49-.49,1.78-1.37,1.78-.67,0-1.43-.73-2.75-.73-1,0-1.4.42-1.4.78,0,1.38,5.79.37,5.79,4.68,0,2.31-1.67,3.78-4.73,3.78-2.58,0-4.66-1.06-4.66-2.26,0-.58.49-1.66,1.25-1.66s1.35,1.1,3.31,1.1C157.41,51,157.63,50.51,157.63,50.17Z"/><path class="cls-6" d="M166.52,37.87a2,2,0,1,1-2-1.74A1.9,1.9,0,0,1,166.52,37.87ZM166.45,43v9.34c0,.59-.86,1.17-1.91,1.17s-1.89-.58-1.89-1.17V43c0-.69.78-1.15,1.89-1.15S166.45,42.35,166.45,43Z"/><path class="cls-6" d="M172.43,52.38c0,.59-.89,1.17-1.92,1.17s-1.88-.58-1.88-1.17V43c0-.69.78-1.15,1.88-1.15.91,0,1.67.46,1.67,1.15v.56a3.61,3.61,0,0,1,3.28-1.86c2.24,0,4.17,2.33,4.17,5.15v5.49c0,.78-.95,1.17-1.91,1.17s-1.89-.39-1.89-1.17V46.89a1.85,1.85,0,0,0-1.76-1.84,1.73,1.73,0,0,0-1.64,1.84Z"/><path class="cls-6" d="M192.42,46.89V48.6a5.59,5.59,0,0,1-11.15,0V46.89a5.59,5.59,0,0,1,11.15,0Zm-3.8,0a1.88,1.88,0,0,0-1.79-1.84,1.85,1.85,0,0,0-1.76,1.84V48.6a1.86,1.86,0,0,0,1.76,1.89,1.89,1.89,0,0,0,1.79-1.89Z"/><polygon class="cls-7" points="17.59 123.67 51.22 139.06 190.74 139.06 224.13 123.67 17.59 123.67"/><polygon class="cls-7" points="57.2 172.42 90.83 187.41 151.42 187.72 184.83 172.38 57.2 172.42"/><polygon class="cls-2" points="234.5 66.17 7.5 66.17 17.5 123.17 48.56 123.17 57.2 172.42 184.8 172.42 193.44 123.17 224.5 123.17 234.5 66.17"/><polygon class="cls-4" points="234.5 66.17 7.5 66.17 17.5 123.17 48.56 123.17 57.2 172.42 184.8 172.42 193.44 123.17 224.5 123.17 234.5 66.17"/><path class="cls-8" d="M58.82,96.63v.14a8.53,8.53,0,0,1-8.5,8.37H41.53l1.89-6.29h6.76a2.34,2.34,0,0,0,2.36-2.36v-5a2.34,2.34,0,0,0-2.36-2.36H39.07v25.61H32.83V82.83H50.32a8.52,8.52,0,0,1,8.5,8.37v5.43Zm0-5.29v0Zm0,5.43v0Z"/><path class="cls-8" d="M85.29,95.64v6.28h-16v4.21a2.4,2.4,0,0,0,2.36,2.36H85.29v6.24H71.58a8.53,8.53,0,0,1-8.5-8.51V91.34a8.53,8.53,0,0,1,8.5-8.51H85.29L83.4,89.12H71.68a2.36,2.36,0,0,0-2.36,2.36V98.8l3.16-3.16Z"/><path class="cls-8" d="M114.35,114.73h-6.28L96,94.88v19.85H89.78V82.83H96l12,19.85V82.83h6.28v31.9Z"/><path class="cls-8" d="M144.83,114.73h-6.28v-9.59H127.44l1.89-6.29h9.22V91.48a2.34,2.34,0,0,0-2.36-2.36h-8.75a2.37,2.37,0,0,0-2.36,2.36v23.25h-6.24V91.34a8.54,8.54,0,0,1,8.51-8.51h9a8.53,8.53,0,0,1,8.5,8.51Z"/><path class="cls-8" d="M157.83,114.73a8.54,8.54,0,0,1-8.51-8.51V82.83h6.24v23.3a2.41,2.41,0,0,0,2.37,2.36h9.64l1.89,6.24Z"/><path class="cls-8" d="M189.3,89.12h-9.16v25.61H173.9V92.23L177,89.12H164.73V82.83H189.3Z"/><path class="cls-8" d="M207.83,99.75v15h-6.29V97.81L203,95.64H198.8l-8.55-12.81h7.51l6.9,10.3,7-10.3h7.51Z"/><path class="cls-8" d="M96.44,152.22a8.53,8.53,0,0,1-8.5,8.51H70.45l1.89-6.24H87.79a2.37,2.37,0,0,0,2.37-2.36v-1.85a2.34,2.34,0,0,0-2.37-2.36H79a8.53,8.53,0,0,1-8.51-8.5v-2.08A8.54,8.54,0,0,1,79,128.83H94.08l-1.89,6.29H79.05a2.37,2.37,0,0,0-2.36,2.36v1.79a2.37,2.37,0,0,0,2.36,2.37h8.89a8.53,8.53,0,0,1,8.5,8.5Z"/><path class="cls-8" d="M123.38,160.73h-6.29V147.92H106v12.81H99.75v-31.9H106v16l3.16-3.16h7.94V128.83h6.29Z"/><path class="cls-8" d="M152.91,137.34v14.88a8.53,8.53,0,0,1-8.5,8.51h-8a8.53,8.53,0,0,1-8.5-8.51V137.34a8.53,8.53,0,0,1,8.5-8.51h8A8.53,8.53,0,0,1,152.91,137.34Zm-6.28.14a2.34,2.34,0,0,0-2.36-2.36h-7.8a2.36,2.36,0,0,0-2.36,2.36v14.65a2.4,2.4,0,0,0,2.36,2.36h7.8a2.37,2.37,0,0,0,2.36-2.36Z"/><path class="cls-8" d="M180.56,135.12h-9.17v25.61h-6.23v-22.5l3.12-3.11H156v-6.29h24.57Z"/><path class="cls-8" d="M58.82,96.63v.14a8.53,8.53,0,0,1-8.5,8.37H41.53l1.89-6.29h6.76a2.34,2.34,0,0,0,2.36-2.36v-5a2.34,2.34,0,0,0-2.36-2.36H39.07v25.61H32.83V82.83H50.32a8.52,8.52,0,0,1,8.5,8.37v5.43Zm0-5.29v0Zm0,5.43v0Z"/><path class="cls-8" d="M85.29,95.64v6.28h-16v4.21a2.4,2.4,0,0,0,2.36,2.36H85.29v6.24H71.58a8.53,8.53,0,0,1-8.5-8.51V91.34a8.53,8.53,0,0,1,8.5-8.51H85.29L83.4,89.12H71.68a2.36,2.36,0,0,0-2.36,2.36V98.8l3.16-3.16Z"/><path class="cls-8" d="M114.35,114.73h-6.28L96,94.88v19.85H89.78V82.83H96l12,19.85V82.83h6.28v31.9Z"/><path class="cls-8" d="M144.83,114.73h-6.28v-9.59H127.44l1.89-6.29h9.22V91.48a2.34,2.34,0,0,0-2.36-2.36h-8.75a2.37,2.37,0,0,0-2.36,2.36v23.25h-6.24V91.34a8.54,8.54,0,0,1,8.51-8.51h9a8.53,8.53,0,0,1,8.5,8.51Z"/><path class="cls-8" d="M157.83,114.73a8.54,8.54,0,0,1-8.51-8.51V82.83h6.24v23.3a2.41,2.41,0,0,0,2.37,2.36h9.64l1.89,6.24Z"/><path class="cls-8" d="M189.3,89.12h-9.16v25.61H173.9V92.23L177,89.12H164.73V82.83H189.3Z"/><path class="cls-8" d="M207.83,99.75v15h-6.29V97.81L203,95.64H198.8l-8.55-12.81h7.51l6.9,10.3,7-10.3h7.51Z"/><path class="cls-8" d="M96.44,152.22a8.53,8.53,0,0,1-8.5,8.51H70.45l1.89-6.24H87.79a2.37,2.37,0,0,0,2.37-2.36v-1.85a2.34,2.34,0,0,0-2.37-2.36H79a8.53,8.53,0,0,1-8.51-8.5v-2.08A8.54,8.54,0,0,1,79,128.83H94.08l-1.89,6.29H79.05a2.37,2.37,0,0,0-2.36,2.36v1.79a2.37,2.37,0,0,0,2.36,2.37h8.89a8.53,8.53,0,0,1,8.5,8.5Z"/><path class="cls-8" d="M123.38,160.73h-6.29V147.92H106v12.81H99.75v-31.9H106v16l3.16-3.16h7.94V128.83h6.29Z"/><path class="cls-8" d="M152.91,137.34v14.88a8.53,8.53,0,0,1-8.5,8.51h-8a8.53,8.53,0,0,1-8.5-8.51V137.34a8.53,8.53,0,0,1,8.5-8.51h8A8.53,8.53,0,0,1,152.91,137.34Zm-6.28.14a2.34,2.34,0,0,0-2.36-2.36h-7.8a2.36,2.36,0,0,0-2.36,2.36v14.65a2.4,2.4,0,0,0,2.36,2.36h7.8a2.37,2.37,0,0,0,2.36-2.36Z"/><path class="cls-8" d="M180.56,135.12h-9.17v25.61h-6.23v-22.5l3.12-3.11H156v-6.29h24.57Z"/><path class="cls-9" d="M55.32,93.13v.14a8.53,8.53,0,0,1-8.5,8.37H38l1.89-6.29h6.76A2.34,2.34,0,0,0,49,93V88a2.34,2.34,0,0,0-2.36-2.36H35.57v25.61H29.33V79.33H46.82a8.52,8.52,0,0,1,8.5,8.37v5.43Zm0-5.29v0Zm0,5.43v0Z"/><path class="cls-9" d="M81.79,92.14v6.28h-16v4.21A2.4,2.4,0,0,0,68.18,105H81.79v6.24H68.08a8.53,8.53,0,0,1-8.5-8.51V87.84a8.53,8.53,0,0,1,8.5-8.51H81.79L79.9,85.62H68.18A2.36,2.36,0,0,0,65.82,88V95.3L69,92.14Z"/><path class="cls-9" d="M110.85,111.23h-6.28l-12-19.85v19.85H86.28V79.33h6.24l12,19.85V79.33h6.28v31.9Z"/><path class="cls-9" d="M141.33,111.23h-6.28v-9.59H123.94l1.89-6.29h9.22V88a2.34,2.34,0,0,0-2.36-2.36h-8.75A2.37,2.37,0,0,0,121.58,88v23.25h-6.24V87.84a8.54,8.54,0,0,1,8.51-8.51h9a8.53,8.53,0,0,1,8.5,8.51Z"/><path class="cls-9" d="M154.33,111.23a8.54,8.54,0,0,1-8.51-8.51V79.33h6.24v23.3a2.41,2.41,0,0,0,2.37,2.36h9.64l1.89,6.24Z"/><path class="cls-9" d="M185.8,85.62h-9.16v25.61H170.4V88.73l3.12-3.11H161.23V79.33H185.8Z"/><path class="cls-9" d="M204.33,96.25v15H198V94.31l1.47-2.17H195.3l-8.55-12.81h7.51l6.9,10.3,7-10.3h7.51Z"/><path class="cls-9" d="M92.94,148.72a8.53,8.53,0,0,1-8.5,8.51H67L68.84,151H84.29a2.37,2.37,0,0,0,2.37-2.36v-1.85a2.34,2.34,0,0,0-2.37-2.36H75.46a8.53,8.53,0,0,1-8.51-8.5v-2.08a8.54,8.54,0,0,1,8.51-8.51H90.58l-1.89,6.29H75.55A2.37,2.37,0,0,0,73.19,134v1.79a2.37,2.37,0,0,0,2.36,2.37h8.89a8.53,8.53,0,0,1,8.5,8.5Z"/><path class="cls-9" d="M119.88,157.23h-6.29V144.42h-11.1v12.81H96.25v-31.9h6.24v16l3.16-3.16h7.94V125.33h6.29Z"/><path class="cls-9" d="M149.41,133.84v14.88a8.53,8.53,0,0,1-8.5,8.51h-8a8.53,8.53,0,0,1-8.5-8.51V133.84a8.53,8.53,0,0,1,8.5-8.51h8A8.53,8.53,0,0,1,149.41,133.84Zm-6.28.14a2.34,2.34,0,0,0-2.36-2.36H133a2.36,2.36,0,0,0-2.36,2.36v14.65A2.4,2.4,0,0,0,133,151h7.8a2.37,2.37,0,0,0,2.36-2.36Z"/><path class="cls-9" d="M177.06,131.62h-9.17v25.61h-6.23v-22.5l3.12-3.11H152.49v-6.29h24.57Z"/><path class="cls-9" d="M55.32,93.13v.14a8.53,8.53,0,0,1-8.5,8.37H38l1.89-6.29h6.76A2.34,2.34,0,0,0,49,93V88a2.34,2.34,0,0,0-2.36-2.36H35.57v25.61H29.33V79.33H46.82a8.52,8.52,0,0,1,8.5,8.37v5.43Zm0-5.29v0Zm0,5.43v0Z"/><path class="cls-9" d="M81.79,92.14v6.28h-16v4.21A2.4,2.4,0,0,0,68.18,105H81.79v6.24H68.08a8.53,8.53,0,0,1-8.5-8.51V87.84a8.53,8.53,0,0,1,8.5-8.51H81.79L79.9,85.62H68.18A2.36,2.36,0,0,0,65.82,88V95.3L69,92.14Z"/><path class="cls-9" d="M110.85,111.23h-6.28l-12-19.85v19.85H86.28V79.33h6.24l12,19.85V79.33h6.28v31.9Z"/><path class="cls-9" d="M141.33,111.23h-6.28v-9.59H123.94l1.89-6.29h9.22V88a2.34,2.34,0,0,0-2.36-2.36h-8.75A2.37,2.37,0,0,0,121.58,88v23.25h-6.24V87.84a8.54,8.54,0,0,1,8.51-8.51h9a8.53,8.53,0,0,1,8.5,8.51Z"/><path class="cls-9" d="M154.33,111.23a8.54,8.54,0,0,1-8.51-8.51V79.33h6.24v23.3a2.41,2.41,0,0,0,2.37,2.36h9.64l1.89,6.24Z"/><path class="cls-9" d="M185.8,85.62h-9.16v25.61H170.4V88.73l3.12-3.11H161.23V79.33H185.8Z"/><path class="cls-9" d="M204.33,96.25v15H198V94.31l1.47-2.17H195.3l-8.55-12.81h7.51l6.9,10.3,7-10.3h7.51Z"/><path class="cls-9" d="M92.94,148.72a8.53,8.53,0,0,1-8.5,8.51H67L68.84,151H84.29a2.37,2.37,0,0,0,2.37-2.36v-1.85a2.34,2.34,0,0,0-2.37-2.36H75.46a8.53,8.53,0,0,1-8.51-8.5v-2.08a8.54,8.54,0,0,1,8.51-8.51H90.58l-1.89,6.29H75.55A2.37,2.37,0,0,0,73.19,134v1.79a2.37,2.37,0,0,0,2.36,2.37h8.89a8.53,8.53,0,0,1,8.5,8.5Z"/><path class="cls-9" d="M119.88,157.23h-6.29V144.42h-11.1v12.81H96.25v-31.9h6.24v16l3.16-3.16h7.94V125.33h6.29Z"/><path class="cls-9" d="M149.41,133.84v14.88a8.53,8.53,0,0,1-8.5,8.51h-8a8.53,8.53,0,0,1-8.5-8.51V133.84a8.53,8.53,0,0,1,8.5-8.51h8A8.53,8.53,0,0,1,149.41,133.84Zm-6.28.14a2.34,2.34,0,0,0-2.36-2.36H133a2.36,2.36,0,0,0-2.36,2.36v14.65A2.4,2.4,0,0,0,133,151h7.8a2.37,2.37,0,0,0,2.36-2.36Z"/><path class="cls-9" d="M177.06,131.62h-9.17v25.61h-6.23v-22.5l3.12-3.11H152.49v-6.29h24.57Z"/><ellipse class="cls-10" cx="121.88" cy="195.92" rx="18" ry="5.5"/><ellipse class="cls-11" cx="121.88" cy="195.92" rx="18" ry="5.5"/><path class="cls-6" d="M139.88,195.92v8.5c0,3-8.06,5.5-18,5.5s-18-2.46-18-5.5v-8.5s0,5.5,18,5.5C133.88,201.42,139.88,199.92,139.88,195.92Z"/><path class="cls-12" d="M139.88,195.92v8.5c0,3-8.06,5.5-18,5.5s-18-2.46-18-5.5v-8.5s0,5.5,18,5.5C133.88,201.42,139.88,199.92,139.88,195.92Z"/><path class="cls-12" d="M93.63,200.67V185.29a5.62,5.62,0,0,1,5.62-5.62H144a5.62,5.62,0,0,1,5.62,5.62v15.38"/></g></g></svg>